<svg width="91" height="91" viewBox="0 0 121 121" fill="none" xmlns="http://www.w3.org/2000/svg">
<path d="M110.61 28.878L63.2157 1.96701C61.5315 1.01072 59.4685 1.01072 57.7843 1.96701L10.3898 28.878C8.66876 29.8552 7.60546 31.6817 7.60546 33.6608V87.3392C7.60546 89.3183 8.66876 91.1448 10.3898 92.122L57.7843 119.033C59.4685 119.989 61.5315 119.989 63.2157 119.033L110.61 92.122C112.331 91.1448 113.395 89.3183 113.395 87.3392V33.6608C113.395 31.6817 112.331 29.8552 110.61 28.878Z" stroke="#D0861F" fill="rgb(245 245 244)"/>
<path d="M104.484 33.637L63.1519 10.8888C61.5008 9.98006 59.4992 9.98006 57.8481 10.8888L16.5157 33.637C14.759 34.6038 13.6676 36.4502 13.6676 38.4554V83.5446C13.6676 85.5498 14.759 87.3962 16.5157 88.363L57.8481 111.111C59.4992 112.02 61.5008 112.02 63.1519 111.111L104.484 88.363C106.241 87.3962 107.332 85.5499 107.332 83.5446V38.4554C107.332 36.4502 106.241 34.6038 104.484 33.637Z"  stroke="#D0861F" fill="#fbc000"/>
</svg>
